<?xml version="1.0" encoding="UTF-8" standalone="no"?>
<svg
   xmlns:dc="http://purl.org/dc/elements/1.1/"
   xmlns:cc="http://creativecommons.org/ns#"
   xmlns:rdf="http://www.w3.org/1999/02/22-rdf-syntax-ns#"
   xmlns:svg="http://www.w3.org/2000/svg"
   xmlns="http://www.w3.org/2000/svg"
   xmlns:sodipodi="http://sodipodi.sourceforge.net/DTD/sodipodi-0.dtd"
   xmlns:inkscape="http://www.inkscape.org/namespaces/inkscape"
   id="Layer_1"
   data-name="Layer 1"
   viewBox="0 0 302.26 113"
   version="1.1"
   sodipodi:docname="WS_HomeHealthHospice_Stacked.svg"
   inkscape:version="1.0.1 (3bc2e813f5, 2020-09-07)">
  <metadata
     id="metadata63">
    <rdf:RDF>
      <cc:Work
         rdf:about="">
        <dc:format>image/svg+xml</dc:format>
        <dc:type
           rdf:resource="http://purl.org/dc/dcmitype/StillImage" />
      </cc:Work>
    </rdf:RDF>
  </metadata>
  <sodipodi:namedview
     pagecolor="#ffffff"
     bordercolor="#666666"
     borderopacity="1"
     objecttolerance="10"
     gridtolerance="10"
     guidetolerance="10"
     inkscape:pageopacity="0"
     inkscape:pageshadow="2"
     inkscape:window-width="2560"
     inkscape:window-height="1387"
     id="namedview61"
     showgrid="false"
     inkscape:zoom="9.7506153"
     inkscape:cx="226.03186"
     inkscape:cy="56.721625"
     inkscape:window-x="1912"
     inkscape:window-y="-8"
     inkscape:window-maximized="1"
     inkscape:current-layer="Layer_1" />
  <defs
     id="defs4">
    <style
       id="style2">.cls-1{fill:#5eb8b7;}.cls-2{fill:#e07e26;}.cls-3{fill:#bf4b27;}.cls-4{fill:#1b3647;}.cls-5{fill:#231f20;}</style>
  </defs>
  <title
     id="title6">WS-HomeHealthHospice</title>
  <path
     class="cls-1"
     d="M104.67,34.48,93.32,23.13a.53.53,0,0,0-.75,0L75.05,40.63l10.63,2.92Z"
     id="path8" />
  <path
     class="cls-2"
     d="M112.56,30.71l-7.89,3.77,19.59,19.67L113.26,31A.53.53,0,0,0,112.56,30.71Z"
     id="path10" />
  <polygon
     class="cls-3"
     points="85.68 43.55 104.67 34.48 124.26 54.16 85.68 43.55"
     id="polygon12" />
  <path
     class="cls-4"
     d="M124.26,54.15H61.56L70,39.78a.61.61,0,0,1,.8-.32Z"
     id="path14" />
  <path
     class="cls-1"
     d="M233.43,56.76c-1.06,3-2.92,4.42-5.49,4.42a10.7,10.7,0,0,1-2.25-.28v-3h.92a3.17,3.17,0,0,0,3.44-2.35l.46-1.38-6.22-17.5h4.25l4.08,12.69,3.9-12.69h4.18ZM201.06,41.12l-4-1.16c-1.86-.53-3-1.48-3-3.17,0-2.25,1.79-3.23,4.22-3.23,2.81,0,4.46,1.37,4.67,3.9h3.87c-.18-4.46-3.76-7.21-8.5-7.21S190,32.82,190,36.86c0,3.38,2.07,5.49,6.12,6.65l3.4,1c2.57.74,3.38,1.58,3.38,3.48,0,2.07-1.83,3.2-4.29,3.2-3.16,0-5.13-1.34-5.38-4.15h-3.86c.17,5.2,4.36,7.45,9.24,7.45s8.4-2.42,8.4-6.64c0-3.55-1.76-5.52-5.9-6.71m16.87,2.39L224,36.65h-4.67l-6.12,7.07V29.52h-3.86V54.15h3.86V48.43l2.15-2.18,5.48,7.9h4.57Z"
     id="path16" />
  <path
     class="cls-4"
     d="M168.69,43.47v.21H161.2c.35-2.46,1.62-4.22,3.9-4.22s3.59,1.58,3.59,4M165.1,36.3c-4.78,0-7.94,3.94-7.94,9.07v.49c0,5.17,3,8.61,8.12,8.61,2.77,0,5.55-1,7-3.3l-2.18-2a5.66,5.66,0,0,1-4.64,2.14c-2.64,0-4.18-1.89-4.36-4.6h11.46V45.05c0-5.27-2.5-8.75-7.49-8.75m-7.7-5.73h-4l-3.65,17.64-4.4-15.53H142l-4.36,15.53-3.41-17.64h-4.11l5.27,23.58h3.94l4.32-15.25,4.4,15.25H152Zm29.46-1.05H183V54.15h3.87ZM175.33,54.15h3.87V29.52h-3.87Z"
     id="path18" />
  <path
     class="cls-5"
     d="M28.47,88.37H26.2V80.44H17.55v7.93H15.29V71.21h2.26v7.38H26.2V71.21h2.27Z"
     id="path20" />
  <path
     class="cls-5"
     d="M31.33,81.87a7.55,7.55,0,0,1,.73-3.37,5.6,5.6,0,0,1,2-2.3,5.54,5.54,0,0,1,3-.82,5.4,5.4,0,0,1,4.22,1.8,7,7,0,0,1,1.6,4.8v.15a7.51,7.51,0,0,1-.71,3.34,5.34,5.34,0,0,1-2,2.31,5.63,5.63,0,0,1-3,.82,5.36,5.36,0,0,1-4.2-1.8A6.86,6.86,0,0,1,31.33,82Zm2.19.26a5.5,5.5,0,0,0,1,3.41,3.18,3.18,0,0,0,2.64,1.28,3.14,3.14,0,0,0,2.64-1.3,6,6,0,0,0,1-3.65,5.49,5.49,0,0,0-1-3.4,3.2,3.2,0,0,0-2.65-1.3,3.13,3.13,0,0,0-2.6,1.29A5.9,5.9,0,0,0,33.52,82.13Z"
     id="path22" />
  <path
     class="cls-5"
     d="M47.48,75.62,47.53,77a4.73,4.73,0,0,1,3.79-1.65A3.66,3.66,0,0,1,55,77.43,4.71,4.71,0,0,1,56.61,76,4.88,4.88,0,0,1,59,75.38q4.2,0,4.27,4.44v8.55H61.11V80a2.9,2.9,0,0,0-.63-2,2.73,2.73,0,0,0-2.09-.68,2.88,2.88,0,0,0-2,.73,3,3,0,0,0-.93,2v8.46H53.25V80c0-1.85-.91-2.78-2.72-2.78a2.93,2.93,0,0,0-2.94,1.83v9.31H45.41V75.62Z"
     id="path24" />
  <path
     class="cls-5"
     d="M71.62,88.6a5.57,5.57,0,0,1-4.21-1.7,6.3,6.3,0,0,1-1.63-4.55v-.41a7.66,7.66,0,0,1,.72-3.38,5.73,5.73,0,0,1,2-2.34,5.11,5.11,0,0,1,2.82-.84A4.79,4.79,0,0,1,75.22,77a7.07,7.07,0,0,1,1.38,4.69v.91H68a4.53,4.53,0,0,0,1.1,3,3.44,3.44,0,0,0,2.68,1.16,3.77,3.77,0,0,0,2-.47,4.87,4.87,0,0,0,1.4-1.25l1.33,1A5.36,5.36,0,0,1,71.62,88.6Zm-.27-11.43a2.9,2.9,0,0,0-2.21,1A4.65,4.65,0,0,0,68,80.83h6.39v-.17a4.14,4.14,0,0,0-.9-2.57A2.74,2.74,0,0,0,71.35,77.17Z"
     id="path26" />
  <path
     class="cls-5"
     d="M98.14,88.37H95.86V80.44H87.21v7.93H85V71.21h2.26v7.38h8.65V71.21h2.28Z"
     id="path28" />
  <path
     class="cls-5"
     d="M106.86,88.6a5.6,5.6,0,0,1-4.22-1.7A6.33,6.33,0,0,1,101,82.35v-.41a7.66,7.66,0,0,1,.72-3.38,5.66,5.66,0,0,1,2-2.34,5.11,5.11,0,0,1,2.82-.84A4.77,4.77,0,0,1,110.45,77a7.07,7.07,0,0,1,1.38,4.69v.91H103.2a4.48,4.48,0,0,0,1.1,3A3.43,3.43,0,0,0,107,86.82a3.71,3.71,0,0,0,2-.47,4.78,4.78,0,0,0,1.41-1.25l1.33,1A5.36,5.36,0,0,1,106.86,88.6Zm-.27-11.43a2.92,2.92,0,0,0-2.22,1,4.71,4.71,0,0,0-1.1,2.7h6.38v-.17a4.14,4.14,0,0,0-.89-2.57A2.75,2.75,0,0,0,106.59,77.17Z"
     id="path30" />
  <path
     class="cls-5"
     d="M122,88.37a4.53,4.53,0,0,1-.3-1.35,4.86,4.86,0,0,1-3.63,1.58,4.48,4.48,0,0,1-3.1-1.07,3.44,3.44,0,0,1-1.2-2.7,3.59,3.59,0,0,1,1.51-3.09,7.1,7.1,0,0,1,4.26-1.1h2.12v-1a2.45,2.45,0,0,0-.68-1.82,2.73,2.73,0,0,0-2-.68,3.12,3.12,0,0,0-2,.59,1.71,1.71,0,0,0-.79,1.42H114a3,3,0,0,1,.67-1.84,4.79,4.79,0,0,1,1.84-1.41,6.15,6.15,0,0,1,2.55-.52,5.09,5.09,0,0,1,3.46,1.1,4,4,0,0,1,1.29,3v5.87a7.13,7.13,0,0,0,.45,2.79v.19Zm-3.61-1.67a3.75,3.75,0,0,0,1.94-.53,3.18,3.18,0,0,0,1.33-1.37V82.18h-1.71q-4,0-4,2.35a2,2,0,0,0,.68,1.6A2.66,2.66,0,0,0,118.37,86.7Z"
     id="path32" />
  <path
     class="cls-5"
     d="M129.37,88.37h-2.18V70.27h2.18Z"
     id="path34" />
  <path
     class="cls-5"
     d="M135.57,72.53v3.09H138V77.3h-2.38v7.92a1.73,1.73,0,0,0,.32,1.15,1.35,1.35,0,0,0,1.08.38,5.64,5.64,0,0,0,1-.14v1.76a6.65,6.65,0,0,1-1.68.23,2.72,2.72,0,0,1-2.2-.88,3.83,3.83,0,0,1-.74-2.51V77.3h-2.32V75.62h2.32V72.53Z"
     id="path36" />
  <path
     class="cls-5"
     d="M142.43,77.16a4.67,4.67,0,0,1,3.77-1.78q4.05,0,4.08,4.56v8.43H148.1V79.93a3,3,0,0,0-.63-2,2.53,2.53,0,0,0-1.93-.66,3.15,3.15,0,0,0-1.86.57,3.85,3.85,0,0,0-1.25,1.48v9.09h-2.18V70.27h2.18Z"
     id="path38" />
  <path
     class="cls-5"
     d="M166.91,88.37A4.46,4.46,0,0,1,166.6,87,4.84,4.84,0,0,1,163,88.6a4.44,4.44,0,0,1-3.09-1.07,3.42,3.42,0,0,1-1.21-2.7,3.59,3.59,0,0,1,1.51-3.09,7.1,7.1,0,0,1,4.26-1.1h2.12v-1a2.45,2.45,0,0,0-.68-1.82,2.72,2.72,0,0,0-2-.68,3.15,3.15,0,0,0-2,.59,1.71,1.71,0,0,0-.79,1.42h-2.19a3,3,0,0,1,.68-1.84,4.68,4.68,0,0,1,1.83-1.41,6.15,6.15,0,0,1,2.55-.52,5.09,5.09,0,0,1,3.46,1.1,4,4,0,0,1,1.29,3v5.87a7.13,7.13,0,0,0,.45,2.79v.19Zm-3.62-1.67a3.75,3.75,0,0,0,1.94-.53,3.18,3.18,0,0,0,1.33-1.37V82.18h-1.71q-4,0-4,2.35a2,2,0,0,0,.68,1.6A2.66,2.66,0,0,0,163.29,86.7Z"
     id="path40" />
  <path
     class="cls-5"
     d="M174,75.62l.07,1.6a4.65,4.65,0,0,1,3.82-1.84q4,0,4.08,4.56v8.43h-2.18V79.93a3,3,0,0,0-.63-2,2.55,2.55,0,0,0-1.93-.66,3.11,3.11,0,0,0-1.86.57,3.76,3.76,0,0,0-1.25,1.48v9.09h-2.18V75.62Z"
     id="path42" />
  <path
     class="cls-5"
     d="M184.46,81.89a7.44,7.44,0,0,1,1.39-4.72,4.73,4.73,0,0,1,7.19-.26V70.27h2.18v18.1h-2L193.11,87a4.44,4.44,0,0,1-3.64,1.6,4.34,4.34,0,0,1-3.61-1.81,7.57,7.57,0,0,1-1.4-4.74Zm2.18.24a5.65,5.65,0,0,0,.9,3.4A2.89,2.89,0,0,0,190,86.75a3.19,3.19,0,0,0,3-1.86V79a3.21,3.21,0,0,0-3-1.8,2.89,2.89,0,0,0-2.49,1.24A6.19,6.19,0,0,0,186.64,82.13Z"
     id="path44" />
  <path
     class="cls-5"
     d="M217.62,88.37h-2.28V80.44H206.7v7.93h-2.27V71.21h2.27v7.38h8.64V71.21h2.28Z"
     id="path46" />
  <path
     class="cls-5"
     d="M220.47,81.87a7.55,7.55,0,0,1,.74-3.37,5.47,5.47,0,0,1,2-2.3,5.54,5.54,0,0,1,3-.82,5.38,5.38,0,0,1,4.21,1.8,7,7,0,0,1,1.61,4.8v.15a7.65,7.65,0,0,1-.71,3.34,5.47,5.47,0,0,1-2,2.31,5.64,5.64,0,0,1-3.05.82,5.37,5.37,0,0,1-4.2-1.8A6.9,6.9,0,0,1,220.47,82Zm2.2.26a5.44,5.44,0,0,0,1,3.41,3.16,3.16,0,0,0,2.63,1.28,3.12,3.12,0,0,0,2.64-1.3,6,6,0,0,0,1-3.65,5.49,5.49,0,0,0-1-3.4,3.2,3.2,0,0,0-2.65-1.3,3.11,3.11,0,0,0-2.6,1.29A5.9,5.9,0,0,0,222.67,82.13Z"
     id="path48" />
  <path
     class="cls-5"
     d="M242,85a1.63,1.63,0,0,0-.67-1.37,6.41,6.41,0,0,0-2.32-.84,11.28,11.28,0,0,1-2.63-.85,3.7,3.7,0,0,1-1.44-1.18,2.8,2.8,0,0,1-.46-1.62,3.3,3.3,0,0,1,1.32-2.65,5.17,5.17,0,0,1,3.39-1.09,5.31,5.31,0,0,1,3.52,1.12,3.56,3.56,0,0,1,1.35,2.86h-2.19a2,2,0,0,0-.76-1.54,2.88,2.88,0,0,0-1.92-.65,3,3,0,0,0-1.86.52,1.64,1.64,0,0,0-.67,1.36,1.34,1.34,0,0,0,.62,1.19,7.88,7.88,0,0,0,2.26.76,12.33,12.33,0,0,1,2.64.87,4,4,0,0,1,1.51,1.22,3.07,3.07,0,0,1,.49,1.74,3.27,3.27,0,0,1-1.37,2.74,5.71,5.71,0,0,1-3.55,1,6.46,6.46,0,0,1-2.71-.54,4.45,4.45,0,0,1-1.84-1.51,3.62,3.62,0,0,1-.67-2.11h2.18a2.26,2.26,0,0,0,.88,1.74,3.41,3.41,0,0,0,2.16.64,3.47,3.47,0,0,0,2-.5A1.54,1.54,0,0,0,242,85Z"
     id="path50" />
  <path
     class="cls-5"
     d="M257.54,82.13a7.61,7.61,0,0,1-1.33,4.69,4.26,4.26,0,0,1-3.6,1.78A4.7,4.7,0,0,1,249,87.13v6.14h-2.18V75.62h2l.11,1.41a4.49,4.49,0,0,1,3.7-1.65,4.35,4.35,0,0,1,3.63,1.73,7.67,7.67,0,0,1,1.34,4.82Zm-2.18-.24a5.59,5.59,0,0,0-.92-3.41,3,3,0,0,0-2.52-1.25A3.21,3.21,0,0,0,249,79v6.09a3.22,3.22,0,0,0,3,1.74,3,3,0,0,0,2.49-1.24A6.2,6.2,0,0,0,255.36,81.89Z"
     id="path52" />
  <path
     class="cls-5"
     d="M260.08,72.24a1.28,1.28,0,0,1,.33-.9,1.21,1.21,0,0,1,1-.36,1.24,1.24,0,0,1,1,.36,1.28,1.28,0,0,1,.33.9,1.25,1.25,0,0,1-.33.88,1.23,1.23,0,0,1-1,.35,1.2,1.2,0,0,1-1-.35A1.25,1.25,0,0,1,260.08,72.24Zm2.36,16.13h-2.18V75.62h2.18Z"
     id="path54" />
  <path
     class="cls-5"
     d="M270.8,86.82a3.16,3.16,0,0,0,2-.7,2.49,2.49,0,0,0,1-1.77h2.06a3.88,3.88,0,0,1-.75,2.08A4.88,4.88,0,0,1,273.25,88a5.64,5.64,0,0,1-6.59-1.15,6.89,6.89,0,0,1-1.54-4.75v-.37a7.77,7.77,0,0,1,.68-3.31,5.31,5.31,0,0,1,2-2.25,5.64,5.64,0,0,1,3-.8,5.09,5.09,0,0,1,3.56,1.29A4.54,4.54,0,0,1,275.86,80H273.8a3,3,0,0,0-.93-2,2.94,2.94,0,0,0-2.08-.8,3.06,3.06,0,0,0-2.58,1.2,5.62,5.62,0,0,0-.91,3.46v.41a5.45,5.45,0,0,0,.91,3.39A3,3,0,0,0,270.8,86.82Z"
     id="path56" />
  <path
     class="cls-5"
     d="M283.36,88.6a5.57,5.57,0,0,1-4.21-1.7,6.3,6.3,0,0,1-1.63-4.55v-.41a7.66,7.66,0,0,1,.72-3.38,5.73,5.73,0,0,1,2-2.34,5.11,5.11,0,0,1,2.82-.84A4.79,4.79,0,0,1,287,77a7.07,7.07,0,0,1,1.38,4.69v.91H279.7a4.53,4.53,0,0,0,1.1,3,3.44,3.44,0,0,0,2.68,1.16,3.77,3.77,0,0,0,2-.47,4.87,4.87,0,0,0,1.4-1.25l1.33,1A5.36,5.36,0,0,1,283.36,88.6Zm-.27-11.43a2.9,2.9,0,0,0-2.21,1,4.65,4.65,0,0,0-1.11,2.7h6.39v-.17a4.14,4.14,0,0,0-.9-2.57A2.74,2.74,0,0,0,283.09,77.17Z"
     id="path58" />
  <path
     class="cls-5"
     d="m 238.26758,52.056453 a 2.0947096,1.9203491 0 0 1 0.26416,-0.929907 1.9045217,1.7459921 0 0 1 0.70001,-0.678055 1.8781068,1.7217759 0 0 1 1.93886,0 1.9045217,1.7459921 0 0 1 0.69999,0.678055 2.0947096,1.9203491 0 0 1 0.26414,0.929907 2.1316906,1.9542518 0 0 1 -0.24565,0.922642 1.9599932,1.7968462 0 0 1 -0.69471,0.682901 1.8648992,1.7096677 0 0 1 -1.96527,0 1.9599932,1.7968462 0 0 1 -0.71585,-0.690165 2.1316906,1.9542518 0 0 1 -0.24568,-0.915378 z m 0.22982,0 a 1.8807482,1.7241975 0 0 0 0.22718,0.828203 1.6852772,1.5449972 0 0 0 0.62075,0.600562 1.6113152,1.4771916 0 0 0 1.69319,0 1.6482961,1.5110944 0 0 0 0.61813,-0.60299 1.9177292,1.7581002 0 0 0 0,-1.641867 1.7196167,1.5764783 0 0 0 -0.61284,-0.600552 1.6350886,1.4989862 0 0 0 -1.70641,0 1.7011262,1.5595269 0 0 0 -0.62075,0.600552 1.8490501,1.6951379 0 0 0 -0.21925,0.816092 z m 1.25472,0.154984 v 0.85968 h -0.26415 v -2.085016 h 0.69999 a 0.98263809,0.90084473 0 0 1 0.61282,0.152556 0.59962056,0.54970902 0 0 1 0.21397,0.462535 0.56263956,0.51580626 0 0 1 -0.38301,0.484319 0.47282856,0.433471 0 0 1 0.26414,0.201001 0.76867659,0.70469307 0 0 1 0.074,0.324498 c 0,0.125916 0,0.21552 0,0.273646 a 0.65245056,0.59814153 0 0 0 0.037,0.140445 v 0.04119 h -0.26415 a 1.9467857,1.7847381 0 0 1 -0.037,-0.452842 0.46490405,0.42620611 0 0 0 -0.10298,-0.314806 0.48075306,0.44073587 0 0 0 -0.34341,-0.09202 z m 0,-0.222784 h 0.49132 a 0.56263956,0.51580626 0 0 0 0.35924,-0.104128 0.36716855,0.33660597 0 0 0 0.14264,-0.276064 0.41735704,0.38261685 0 0 0 -0.11619,-0.302705 0.6550921,0.60056319 0 0 0 -0.4068,-0.09447 h -0.47018 z"
     id="path20-7"
     style="fill:#1c3647;stroke-width:0.252918" />
</svg>
